<?xml version="1.0" encoding="UTF-8" standalone="no"?>
<!DOCTYPE svg PUBLIC "-//W3C//DTD SVG 1.1//EN"
 "http://www.w3.org/Graphics/SVG/1.1/DTD/svg11.dtd">
<!-- Generated by graphviz version 2.43.0 (0)
 -->
<!-- Title: cayley Pages: 1 -->
<svg width="432pt" height="246pt"
 viewBox="0.00 0.00 432.00 246.48" xmlns="http://www.w3.org/2000/svg" xmlns:xlink="http://www.w3.org/1999/xlink">
<g id="graph0" class="graph" transform="scale(2.3 2.3) rotate(0) translate(4 562)">
<title>cayley</title>
<polygon fill="white" stroke="transparent" points="-4,4 -4,-562 988,-562 988,4 -4,4"/>
<!-- v1 -->
<g id="node1" class="node">
<title>v1</title>
<ellipse fill="none" stroke="black" cx="577" cy="-540" rx="27" ry="18"/>
<text text-anchor="middle" x="577" y="-536.3" font-family="Times,serif" font-size="14.00">1:1</text>
</g>
<!-- v2 -->
<g id="node2" class="node">
<title>v2</title>
<ellipse fill="none" stroke="black" cx="541" cy="-453" rx="27" ry="18"/>
<text text-anchor="middle" x="541" y="-449.3" font-family="Times,serif" font-size="14.00">2:c</text>
</g>
<!-- v1&#45;&gt;v2 -->
<g id="edge1" class="edge">
<title>v1&#45;&gt;v2</title>
<path fill="none" stroke="black" d="M569.89,-522.21C563.54,-507.21 554.29,-485.37 547.98,-470.47"/>
<text text-anchor="middle" x="565" y="-492.8" font-family="Times,serif" font-size="14.00">c</text>
</g>
<!-- v3 -->
<g id="node3" class="node">
<title>v3</title>
<ellipse fill="none" stroke="black" cx="332" cy="-453" rx="27" ry="18"/>
<text text-anchor="middle" x="332" y="-449.3" font-family="Times,serif" font-size="14.00">3:b</text>
</g>
<!-- v1&#45;&gt;v3 -->
<g id="edge2" class="edge">
<title>v1&#45;&gt;v3</title>
<path fill="none" stroke="black" d="M553.51,-530.85C506.68,-514.6 402.19,-478.35 355.42,-462.13"/>
<text text-anchor="middle" x="474" y="-492.8" font-family="Times,serif" font-size="14.00">b</text>
</g>
<!-- v6 -->
<g id="node6" class="node">
<title>v6</title>
<ellipse fill="none" stroke="black" cx="131" cy="-279" rx="27" ry="18"/>
<text text-anchor="middle" x="131" y="-275.3" font-family="Times,serif" font-size="14.00">6:t</text>
</g>
<!-- v1&#45;&gt;v6 -->
<g id="edge3" class="edge">
<title>v1&#45;&gt;v6</title>
<path fill="none" stroke="black" d="M550.56,-535.47C499.69,-528.07 385.35,-508.43 296,-471 228.43,-442.69 198.88,-443.39 156,-384 137.09,-357.8 132.33,-319.17 131.23,-297.11"/>
<text text-anchor="middle" x="187.5" y="-405.8" font-family="Times,serif" font-size="14.00">t</text>
</g>
<!-- v7 -->
<g id="node7" class="node">
<title>v7</title>
<ellipse fill="none" stroke="black" cx="677" cy="-453" rx="27" ry="18"/>
<text text-anchor="middle" x="677" y="-449.3" font-family="Times,serif" font-size="14.00">7:a</text>
</g>
<!-- v1&#45;&gt;v7 -->
<g id="edge4" class="edge">
<title>v1&#45;&gt;v7</title>
<path fill="none" stroke="black" d="M593.07,-525.34C611.73,-509.48 642.33,-483.47 660.97,-467.62"/>
<text text-anchor="middle" x="636.5" y="-492.8" font-family="Times,serif" font-size="14.00">a</text>
</g>
<!-- v15 -->
<g id="node15" class="node">
<title>v15</title>
<ellipse fill="none" stroke="black" cx="593" cy="-279" rx="30.59" ry="18"/>
<text text-anchor="middle" x="593" y="-275.3" font-family="Times,serif" font-size="14.00">15:s</text>
</g>
<!-- v1&#45;&gt;v15 -->
<g id="edge5" class="edge">
<title>v1&#45;&gt;v15</title>
<path fill="none" stroke="black" d="M601.12,-531.69C630.43,-521.82 680.04,-501.84 713,-471 745.73,-440.38 752.26,-427.25 764,-384 768.19,-368.56 770.99,-362.39 764,-348 753.62,-326.65 743.55,-324.96 722,-315 685.36,-298.08 671.55,-308.95 633,-297 627.52,-295.3 621.77,-293.11 616.39,-290.88"/>
<text text-anchor="middle" x="762" y="-405.8" font-family="Times,serif" font-size="14.00">s</text>
</g>
<!-- v22 -->
<g id="node22" class="node">
<title>v22</title>
<ellipse fill="none" stroke="black" cx="629" cy="-105" rx="31.4" ry="18"/>
<text text-anchor="middle" x="629" y="-101.3" font-family="Times,serif" font-size="14.00">22:u</text>
</g>
<!-- v1&#45;&gt;v22 -->
<g id="edge6" class="edge">
<title>v1&#45;&gt;v22</title>
<path fill="none" stroke="black" d="M603.98,-538.99C693.33,-538.24 974,-529.86 974,-454 974,-454 974,-454 974,-234.5 974,-167.47 742.4,-124.02 658.71,-110.5"/>
<text text-anchor="middle" x="979" y="-318.8" font-family="Times,serif" font-size="14.00">u</text>
</g>
<!-- v4 -->
<g id="node4" class="node">
<title>v4</title>
<ellipse fill="none" stroke="black" cx="199" cy="-366" rx="34.39" ry="18"/>
<text text-anchor="middle" x="199" y="-362.3" font-family="Times,serif" font-size="14.00">4:c*b</text>
</g>
<!-- v2&#45;&gt;v4 -->
<g id="edge7" class="edge">
<title>v2&#45;&gt;v4</title>
<path fill="none" stroke="black" d="M514.1,-450.55C474.29,-447.7 397.81,-439.56 337,-417 324.85,-412.49 323.95,-407 312,-402 282.36,-389.61 272.55,-393.92 242,-384 236.5,-382.21 230.7,-380.09 225.19,-377.95"/>
<text text-anchor="middle" x="342" y="-405.8" font-family="Times,serif" font-size="14.00">b</text>
</g>
<!-- v5 -->
<g id="node5" class="node">
<title>v5</title>
<ellipse fill="none" stroke="black" cx="285" cy="-366" rx="33.6" ry="18"/>
<text text-anchor="middle" x="285" y="-362.3" font-family="Times,serif" font-size="14.00">5:t*b</text>
</g>
<!-- v2&#45;&gt;v5 -->
<g id="edge8" class="edge">
<title>v2&#45;&gt;v5</title>
<path fill="none" stroke="black" d="M516.87,-444.88C477.19,-433.03 395.82,-408.2 328,-384 322.56,-382.06 316.77,-379.86 311.27,-377.71"/>
<text text-anchor="middle" x="424.5" y="-405.8" font-family="Times,serif" font-size="14.00">t</text>
</g>
<!-- v8 -->
<g id="node8" class="node">
<title>v8</title>
<ellipse fill="none" stroke="black" cx="573" cy="-366" rx="34.39" ry="18"/>
<text text-anchor="middle" x="573" y="-362.3" font-family="Times,serif" font-size="14.00">8:c*a</text>
</g>
<!-- v2&#45;&gt;v8 -->
<g id="edge9" class="edge">
<title>v2&#45;&gt;v8</title>
<path fill="none" stroke="black" d="M547.32,-435.21C552.93,-420.31 561.08,-398.65 566.69,-383.76"/>
<text text-anchor="middle" x="562.5" y="-405.8" font-family="Times,serif" font-size="14.00">a</text>
</g>
<!-- v16 -->
<g id="node16" class="node">
<title>v16</title>
<ellipse fill="none" stroke="black" cx="664" cy="-192" rx="40.09" ry="18"/>
<text text-anchor="middle" x="664" y="-188.3" font-family="Times,serif" font-size="14.00">16:u*c</text>
</g>
<!-- v2&#45;&gt;v16 -->
<g id="edge10" class="edge">
<title>v2&#45;&gt;v16</title>
<path fill="none" stroke="black" d="M556.04,-438.01C569.58,-426.29 590.6,-410.2 612,-402 675.53,-377.67 703.45,-415.01 764,-384 783.32,-374.11 780.82,-362.46 797,-348 825.7,-322.35 849.55,-331.31 867,-297 919.27,-194.24 728.04,-215.1 713,-210 707.12,-208.01 700.84,-205.85 694.82,-203.77"/>
<text text-anchor="middle" x="857" y="-318.8" font-family="Times,serif" font-size="14.00">s</text>
</g>
<!-- v21 -->
<g id="node21" class="node">
<title>v21</title>
<ellipse fill="none" stroke="black" cx="566" cy="-192" rx="39.79" ry="18"/>
<text text-anchor="middle" x="566" y="-188.3" font-family="Times,serif" font-size="14.00">21:s*c</text>
</g>
<!-- v2&#45;&gt;v21 -->
<g id="edge11" class="edge">
<title>v2&#45;&gt;v21</title>
<path fill="none" stroke="black" d="M530.88,-436.25C527.71,-430.43 524.61,-423.64 523,-417 521.43,-410.52 522.57,-408.65 523,-402 527.69,-329.36 550.51,-245.1 560.87,-209.85"/>
<text text-anchor="middle" x="539" y="-318.8" font-family="Times,serif" font-size="14.00">u</text>
</g>
<!-- v3&#45;&gt;v4 -->
<g id="edge12" class="edge">
<title>v3&#45;&gt;v4</title>
<path fill="none" stroke="black" d="M313.23,-440C288.59,-424.26 245.5,-396.72 219.87,-380.34"/>
<text text-anchor="middle" x="276.5" y="-405.8" font-family="Times,serif" font-size="14.00">t</text>
</g>
<!-- v3&#45;&gt;v5 -->
<g id="edge13" class="edge">
<title>v3&#45;&gt;v5</title>
<path fill="none" stroke="black" d="M318.35,-437.07C313.39,-431.12 308.01,-424.03 304,-417 298.1,-406.68 293.35,-394.18 290.08,-384.26"/>
<text text-anchor="middle" x="308" y="-405.8" font-family="Times,serif" font-size="14.00">c</text>
</g>
<!-- v9 -->
<g id="node9" class="node">
<title>v9</title>
<ellipse fill="none" stroke="black" cx="720" cy="-366" rx="35.19" ry="18"/>
<text text-anchor="middle" x="720" y="-362.3" font-family="Times,serif" font-size="14.00">9:b*a</text>
</g>
<!-- v3&#45;&gt;v9 -->
<g id="edge14" class="edge">
<title>v3&#45;&gt;v9</title>
<path fill="none" stroke="black" d="M356.94,-445.77C396.35,-436 475.49,-416.67 543,-402 593.35,-391.06 652.08,-379.73 687.63,-373.02"/>
<text text-anchor="middle" x="547.5" y="-405.8" font-family="Times,serif" font-size="14.00">a</text>
</g>
<!-- v13 -->
<g id="node13" class="node">
<title>v13</title>
<ellipse fill="none" stroke="black" cx="377" cy="-366" rx="40.09" ry="18"/>
<text text-anchor="middle" x="377" y="-362.3" font-family="Times,serif" font-size="14.00">13:s*a</text>
</g>
<!-- v3&#45;&gt;v13 -->
<g id="edge15" class="edge">
<title>v3&#45;&gt;v13</title>
<path fill="none" stroke="black" d="M340.68,-435.61C348.59,-420.66 360.24,-398.66 368.2,-383.63"/>
<text text-anchor="middle" x="361" y="-405.8" font-family="Times,serif" font-size="14.00">s</text>
</g>
<!-- v24 -->
<g id="node24" class="node">
<title>v24</title>
<ellipse fill="none" stroke="black" cx="383" cy="-18" rx="41.69" ry="18"/>
<text text-anchor="middle" x="383" y="-14.3" font-family="Times,serif" font-size="14.00">24:u*b</text>
</g>
<!-- v3&#45;&gt;v24 -->
<g id="edge16" class="edge">
<title>v3&#45;&gt;v24</title>
<path fill="none" stroke="black" d="M308.65,-443.95C249.53,-423.22 95.85,-367.02 57,-330 21.77,-296.42 0,-285.17 0,-236.5 0,-236.5 0,-236.5 0,-104 0,-34.7 242.02,-21.86 341.28,-19.51"/>
<text text-anchor="middle" x="6" y="-231.8" font-family="Times,serif" font-size="14.00">u</text>
</g>
<!-- v4&#45;&gt;v6 -->
<g id="edge17" class="edge">
<title>v4&#45;&gt;v6</title>
<path fill="none" stroke="black" d="M186.21,-349.01C173.9,-333.62 155.41,-310.51 143.27,-295.34"/>
<text text-anchor="middle" x="173" y="-318.8" font-family="Times,serif" font-size="14.00">c</text>
</g>
<!-- v10 -->
<g id="node10" class="node">
<title>v10</title>
<ellipse fill="none" stroke="black" cx="808" cy="-279" rx="50.09" ry="18"/>
<text text-anchor="middle" x="808" y="-275.3" font-family="Times,serif" font-size="14.00">10:c*b*a</text>
</g>
<!-- v4&#45;&gt;v10 -->
<g id="edge18" class="edge">
<title>v4&#45;&gt;v10</title>
<path fill="none" stroke="black" d="M224.04,-353.52C229.82,-351.31 236.04,-349.29 242,-348 320.5,-331.01 526.6,-354.8 603,-330 614.61,-326.23 614.59,-319.32 626,-315 677.68,-295.45 695,-308.68 749,-297 756.29,-295.42 764.01,-293.44 771.37,-291.38"/>
<text text-anchor="middle" x="630.5" y="-318.8" font-family="Times,serif" font-size="14.00">a</text>
</g>
<!-- v14 -->
<g id="node14" class="node">
<title>v14</title>
<ellipse fill="none" stroke="black" cx="380" cy="-279" rx="50.09" ry="18"/>
<text text-anchor="middle" x="380" y="-275.3" font-family="Times,serif" font-size="14.00">14:u*c*a</text>
</g>
<!-- v4&#45;&gt;v14 -->
<g id="edge19" class="edge">
<title>v4&#45;&gt;v14</title>
<path fill="none" stroke="black" d="M195.97,-347.65C195.14,-336.95 196.14,-323.66 204,-315 206.25,-312.52 284.93,-297.57 336.31,-288.03"/>
<text text-anchor="middle" x="208" y="-318.8" font-family="Times,serif" font-size="14.00">s</text>
</g>
<!-- v23 -->
<g id="node23" class="node">
<title>v23</title>
<ellipse fill="none" stroke="black" cx="314" cy="-105" rx="51.19" ry="18"/>
<text text-anchor="middle" x="314" y="-101.3" font-family="Times,serif" font-size="14.00">23:u*b*a</text>
</g>
<!-- v4&#45;&gt;v23 -->
<g id="edge20" class="edge">
<title>v4&#45;&gt;v23</title>
<path fill="none" stroke="black" d="M166.83,-359.44C134.46,-353.26 87.47,-342.49 74,-330 40.65,-299.09 40.09,-265.37 66,-228 113.85,-158.99 212.17,-127.32 269.6,-114.19"/>
<text text-anchor="middle" x="71" y="-231.8" font-family="Times,serif" font-size="14.00">u</text>
</g>
<!-- v5&#45;&gt;v6 -->
<g id="edge21" class="edge">
<title>v5&#45;&gt;v6</title>
<path fill="none" stroke="black" d="M266.04,-350.85C248.78,-338.11 224.44,-320.57 214,-315 194.26,-304.48 187.57,-305.78 167,-297 162.17,-294.94 157.03,-292.6 152.2,-290.34"/>
<text text-anchor="middle" x="241" y="-318.8" font-family="Times,serif" font-size="14.00">b</text>
</g>
<!-- v11 -->
<g id="node11" class="node">
<title>v11</title>
<ellipse fill="none" stroke="black" cx="691" cy="-279" rx="49.29" ry="18"/>
<text text-anchor="middle" x="691" y="-275.3" font-family="Times,serif" font-size="14.00">11:t*b*a</text>
</g>
<!-- v5&#45;&gt;v11 -->
<g id="edge22" class="edge">
<title>v5&#45;&gt;v11</title>
<path fill="none" stroke="black" d="M310.11,-353.82C315.89,-351.6 322.08,-349.49 328,-348 393.96,-331.36 416.05,-353.19 480,-330 491.47,-325.84 491.57,-319.27 503,-315 557.64,-294.58 575.97,-309.24 633,-297 640.18,-295.46 647.77,-293.49 655.01,-291.44"/>
<text text-anchor="middle" x="507.5" y="-318.8" font-family="Times,serif" font-size="14.00">a</text>
</g>
<!-- v18 -->
<g id="node18" class="node">
<title>v18</title>
<ellipse fill="none" stroke="black" cx="465" cy="-105" rx="48.19" ry="18"/>
<text text-anchor="middle" x="465" y="-101.3" font-family="Times,serif" font-size="14.00">18:t*s*a</text>
</g>
<!-- v5&#45;&gt;v18 -->
<g id="edge23" class="edge">
<title>v5&#45;&gt;v18</title>
<path fill="none" stroke="black" d="M259.33,-354.03C253.68,-351.85 247.69,-349.71 242,-348 175.76,-328.13 130.4,-356.4 95,-297 86.81,-283.26 86.43,-274.51 95,-261 158.22,-161.3 228.09,-196.46 339,-156 371.72,-144.06 408.72,-129.22 434.12,-118.82"/>
<text text-anchor="middle" x="125" y="-231.8" font-family="Times,serif" font-size="14.00">s</text>
</g>
<!-- v19 -->
<g id="node19" class="node">
<title>v19</title>
<ellipse fill="none" stroke="black" cx="225" cy="-279" rx="49.29" ry="18"/>
<text text-anchor="middle" x="225" y="-275.3" font-family="Times,serif" font-size="14.00">19:s*c*a</text>
</g>
<!-- v5&#45;&gt;v19 -->
<g id="edge24" class="edge">
<title>v5&#45;&gt;v19</title>
<path fill="none" stroke="black" d="M274.6,-348.58C268.25,-338.72 259.86,-326 252,-315 247.63,-308.88 242.65,-302.32 238.16,-296.55"/>
<text text-anchor="middle" x="267" y="-318.8" font-family="Times,serif" font-size="14.00">u</text>
</g>
<!-- v12 -->
<g id="node12" class="node">
<title>v12</title>
<ellipse fill="none" stroke="black" cx="761" cy="-192" rx="38.99" ry="18"/>
<text text-anchor="middle" x="761" y="-188.3" font-family="Times,serif" font-size="14.00">12:t*a</text>
</g>
<!-- v6&#45;&gt;v12 -->
<g id="edge25" class="edge">
<title>v6&#45;&gt;v12</title>
<path fill="none" stroke="black" d="M151.04,-266.83C156.1,-264.49 161.63,-262.33 167,-261 255.31,-239.15 489.39,-270.83 576,-243 587.62,-239.27 587.61,-232.38 599,-228 646.87,-209.58 663.28,-222.62 713,-210 719.26,-208.41 725.85,-206.35 732.07,-204.21"/>
<text text-anchor="middle" x="603.5" y="-231.8" font-family="Times,serif" font-size="14.00">a</text>
</g>
<!-- v17 -->
<g id="node17" class="node">
<title>v17</title>
<ellipse fill="none" stroke="black" cx="432" cy="-192" rx="38.19" ry="18"/>
<text text-anchor="middle" x="432" y="-188.3" font-family="Times,serif" font-size="14.00">17:t*s</text>
</g>
<!-- v6&#45;&gt;v17 -->
<g id="edge26" class="edge">
<title>v6&#45;&gt;v17</title>
<path fill="none" stroke="black" d="M152.06,-267.32C156.9,-265.07 162.08,-262.83 167,-261 195.1,-250.56 204.56,-255.07 232,-243 243.51,-237.94 244.18,-232.3 256,-228 310.41,-208.23 328.81,-223.92 385,-210 391.06,-208.5 397.44,-206.5 403.46,-204.39"/>
<text text-anchor="middle" x="260" y="-231.8" font-family="Times,serif" font-size="14.00">s</text>
</g>
<!-- v20 -->
<g id="node20" class="node">
<title>v20</title>
<ellipse fill="none" stroke="black" cx="335" cy="-192" rx="40.89" ry="18"/>
<text text-anchor="middle" x="335" y="-188.3" font-family="Times,serif" font-size="14.00">20:u*a</text>
</g>
<!-- v6&#45;&gt;v20 -->
<g id="edge27" class="edge">
<title>v6&#45;&gt;v20</title>
<path fill="none" stroke="black" d="M146.89,-264.29C160.64,-253.07 181.5,-237.54 202,-228 232.63,-213.75 270.04,-204.56 297.37,-199.19"/>
<text text-anchor="middle" x="207" y="-231.8" font-family="Times,serif" font-size="14.00">u</text>
</g>
<!-- v7&#45;&gt;v8 -->
<g id="edge28" class="edge">
<title>v7&#45;&gt;v8</title>
<path fill="none" stroke="black" d="M668.31,-435.57C662.08,-424.97 652.88,-411.45 642,-402 629.83,-391.44 613.9,-383.08 600.42,-377.19"/>
<text text-anchor="middle" x="659" y="-405.8" font-family="Times,serif" font-size="14.00">c</text>
</g>
<!-- v7&#45;&gt;v9 -->
<g id="edge29" class="edge">
<title>v7&#45;&gt;v9</title>
<path fill="none" stroke="black" d="M687.05,-436.21C690.67,-430.28 694.68,-423.42 698,-417 703.58,-406.22 709.08,-393.72 713.18,-383.91"/>
<text text-anchor="middle" x="709" y="-405.8" font-family="Times,serif" font-size="14.00">s</text>
</g>
<!-- v7&#45;&gt;v12 -->
<g id="edge30" class="edge">
<title>v7&#45;&gt;v12</title>
<path fill="none" stroke="black" d="M697.56,-440.91C742.35,-416.52 847,-358.16 876,-330 889.01,-317.36 894.39,-314.25 900,-297 904.95,-281.78 908.47,-274.57 900,-261 877.53,-224.99 829.85,-207.53 796.63,-199.43"/>
<text text-anchor="middle" x="895" y="-318.8" font-family="Times,serif" font-size="14.00">u</text>
</g>
<!-- v7&#45;&gt;v13 -->
<g id="edge31" class="edge">
<title>v7&#45;&gt;v13</title>
<path fill="none" stroke="black" d="M656.93,-440.58C636.08,-429.18 602.2,-411.98 571,-402 518.68,-385.26 455.71,-375.76 416.01,-370.99"/>
<text text-anchor="middle" x="612" y="-405.8" font-family="Times,serif" font-size="14.00">b</text>
</g>
<!-- v7&#45;&gt;v20 -->
<g id="edge32" class="edge">
<title>v7&#45;&gt;v20</title>
<path fill="none" stroke="black" d="M677.14,-434.64C676.38,-405.22 670.25,-345.74 635,-315 606.88,-290.48 588.97,-306.91 553,-297 543.85,-294.48 399.21,-247.76 391,-243 375.44,-233.98 360.38,-220.16 349.81,-209.33"/>
<text text-anchor="middle" x="650.5" y="-318.8" font-family="Times,serif" font-size="14.00">t</text>
</g>
<!-- v8&#45;&gt;v10 -->
<g id="edge33" class="edge">
<title>v8&#45;&gt;v10</title>
<path fill="none" stroke="black" d="M601.7,-355.85C620.4,-349.49 645.12,-340.32 666,-330 677.28,-324.42 678.53,-320.17 690,-315 693.81,-313.28 737.06,-300.58 770.11,-290.97"/>
<text text-anchor="middle" x="694" y="-318.8" font-family="Times,serif" font-size="14.00">s</text>
</g>
<!-- v8&#45;&gt;v11 -->
<g id="edge34" class="edge">
<title>v8&#45;&gt;v11</title>
<path fill="none" stroke="black" d="M576.15,-347.68C578.92,-336.98 583.98,-323.69 593,-315 597.75,-310.43 628.96,-299.68 654.9,-291.3"/>
<text text-anchor="middle" x="598" y="-318.8" font-family="Times,serif" font-size="14.00">u</text>
</g>
<!-- v8&#45;&gt;v14 -->
<g id="edge35" class="edge">
<title>v8&#45;&gt;v14</title>
<path fill="none" stroke="black" d="M542.92,-356.95C521.94,-350.81 493.61,-341.48 470,-330 459.03,-324.66 457.53,-321.17 447,-315 434.54,-307.71 420.42,-300.22 408.36,-294.05"/>
<text text-anchor="middle" x="475" y="-318.8" font-family="Times,serif" font-size="14.00">b</text>
</g>
<!-- v8&#45;&gt;v19 -->
<g id="edge36" class="edge">
<title>v8&#45;&gt;v19</title>
<path fill="none" stroke="black" d="M540.94,-359.05C513.9,-353.42 474.51,-343.78 442,-330 430.07,-324.95 429.22,-319.32 417,-315 362.42,-295.72 344.72,-308.56 288,-297 279.67,-295.3 270.82,-293.14 262.46,-290.93"/>
<text text-anchor="middle" x="445.5" y="-318.8" font-family="Times,serif" font-size="14.00">t</text>
</g>
<!-- v9&#45;&gt;v10 -->
<g id="edge37" class="edge">
<title>v9&#45;&gt;v10</title>
<path fill="none" stroke="black" d="M735.73,-349.8C751.35,-334.71 775.22,-311.66 791.21,-296.22"/>
<text text-anchor="middle" x="774" y="-318.8" font-family="Times,serif" font-size="14.00">u</text>
</g>
<!-- v9&#45;&gt;v11 -->
<g id="edge38" class="edge">
<title>v9&#45;&gt;v11</title>
<path fill="none" stroke="black" d="M729.94,-348.26C734.52,-338.29 737.95,-325.56 733,-315 729.3,-307.09 722.83,-300.35 716.07,-294.95"/>
<text text-anchor="middle" x="739" y="-318.8" font-family="Times,serif" font-size="14.00">c</text>
</g>
<!-- v9&#45;&gt;v15 -->
<g id="edge39" class="edge">
<title>v9&#45;&gt;v15</title>
<path fill="none" stroke="black" d="M716.09,-347.9C712.75,-337.02 706.88,-323.44 697,-315 674.53,-295.81 660.88,-306.8 633,-297 627.59,-295.1 621.87,-292.83 616.49,-290.57"/>
<text text-anchor="middle" x="713" y="-318.8" font-family="Times,serif" font-size="14.00">b</text>
</g>
<!-- v9&#45;&gt;v23 -->
<g id="edge40" class="edge">
<title>v9&#45;&gt;v23</title>
<path fill="none" stroke="black" d="M688.95,-357.22C665.7,-350.97 633.33,-341.39 606,-330 592.97,-324.57 591.56,-318.91 578,-315 522.99,-299.13 367.46,-330.46 321,-297 274.78,-263.71 277.44,-230.46 285,-174 287.02,-158.93 288.18,-155.05 294,-141 296.57,-134.79 300.03,-128.32 303.34,-122.65"/>
<text text-anchor="middle" x="285.5" y="-231.8" font-family="Times,serif" font-size="14.00">t</text>
</g>
<!-- v10&#45;&gt;v12 -->
<g id="edge41" class="edge">
<title>v10&#45;&gt;v12</title>
<path fill="none" stroke="black" d="M798.71,-261.21C790.47,-246.31 778.5,-224.65 770.27,-209.76"/>
<text text-anchor="middle" x="791" y="-231.8" font-family="Times,serif" font-size="14.00">c</text>
</g>
<!-- v10&#45;&gt;v16 -->
<g id="edge42" class="edge">
<title>v10&#45;&gt;v16</title>
<path fill="none" stroke="black" d="M774.38,-265.49C759.72,-259.48 742.58,-251.7 728,-243 711.17,-232.96 693.75,-219.08 681.34,-208.49"/>
<text text-anchor="middle" x="733" y="-231.8" font-family="Times,serif" font-size="14.00">b</text>
</g>
<!-- v10&#45;&gt;v24 -->
<g id="edge43" class="edge">
<title>v10&#45;&gt;v24</title>
<path fill="none" stroke="black" d="M813.03,-260.9C818.39,-239.2 824.18,-201.3 809,-174 773.4,-109.97 736.54,-115.39 669,-87 584.78,-51.6 478.51,-32.46 422.2,-24.15"/>
<text text-anchor="middle" x="800.5" y="-144.8" font-family="Times,serif" font-size="14.00">t</text>
</g>
<!-- v11&#45;&gt;v12 -->
<g id="edge44" class="edge">
<title>v11&#45;&gt;v12</title>
<path fill="none" stroke="black" d="M716.04,-263.46C724.14,-257.85 732.66,-250.87 739,-243 746.85,-233.25 752.45,-220.26 756.04,-209.96"/>
<text text-anchor="middle" x="751" y="-231.8" font-family="Times,serif" font-size="14.00">s</text>
</g>
<!-- v11&#45;&gt;v17 -->
<g id="edge45" class="edge">
<title>v11&#45;&gt;v17</title>
<path fill="none" stroke="black" d="M664.91,-263.62C654.01,-257.46 641.28,-250.07 630,-243 619.97,-236.72 618.91,-232.57 608,-228 569.98,-212.06 557.44,-218.04 517,-210 500.47,-206.71 482.13,-203.05 466.74,-199.96"/>
<text text-anchor="middle" x="635" y="-231.8" font-family="Times,serif" font-size="14.00">b</text>
</g>
<!-- v11&#45;&gt;v21 -->
<g id="edge46" class="edge">
<title>v11&#45;&gt;v21</title>
<path fill="none" stroke="black" d="M685.47,-261.1C681.16,-250.3 674.18,-236.74 664,-228 662.63,-226.82 624.69,-213.45 596.43,-203.58"/>
<text text-anchor="middle" x="678.5" y="-231.8" font-family="Times,serif" font-size="14.00">t</text>
</g>
<!-- v12&#45;&gt;v18 -->
<g id="edge47" class="edge">
<title>v12&#45;&gt;v18</title>
<path fill="none" stroke="black" d="M731.74,-179.98C725.6,-177.85 719.12,-175.74 713,-174 676.69,-163.68 664.68,-170.91 630,-156 619.13,-151.33 618.81,-145.82 608,-141 576.25,-126.85 537.88,-117.86 508.88,-112.53"/>
<text text-anchor="middle" x="635" y="-144.8" font-family="Times,serif" font-size="14.00">b</text>
</g>
<!-- v12&#45;&gt;v22 -->
<g id="edge48" class="edge">
<title>v12&#45;&gt;v22</title>
<path fill="none" stroke="black" d="M739.2,-176.96C714.16,-160.84 673.4,-134.59 649.1,-118.94"/>
<text text-anchor="middle" x="705.5" y="-144.8" font-family="Times,serif" font-size="14.00">t</text>
</g>
<!-- v13&#45;&gt;v14 -->
<g id="edge49" class="edge">
<title>v13&#45;&gt;v14</title>
<path fill="none" stroke="black" d="M363.22,-348.67C356.8,-339.06 351.3,-326.56 355,-315 357.14,-308.32 361.08,-301.82 365.21,-296.28"/>
<text text-anchor="middle" x="358.5" y="-318.8" font-family="Times,serif" font-size="14.00">t</text>
</g>
<!-- v13&#45;&gt;v15 -->
<g id="edge50" class="edge">
<title>v13&#45;&gt;v15</title>
<path fill="none" stroke="black" d="M383.28,-348.01C388.28,-336.88 396.38,-322.97 408,-315 420.67,-306.31 514.5,-291.51 563.46,-284.26"/>
<text text-anchor="middle" x="412.5" y="-318.8" font-family="Times,serif" font-size="14.00">a</text>
</g>
<!-- v13&#45;&gt;v18 -->
<g id="edge51" class="edge">
<title>v13&#45;&gt;v18</title>
<path fill="none" stroke="black" d="M377.14,-347.83C378.11,-337.19 381.02,-323.91 389,-315 404.76,-297.41 420.31,-311.44 439,-297 462.02,-279.21 466.14,-270.37 476,-243 490.8,-201.92 478.82,-149.56 470.78,-123.04"/>
<text text-anchor="middle" x="484" y="-231.8" font-family="Times,serif" font-size="14.00">u</text>
</g>
<!-- v13&#45;&gt;v19 -->
<g id="edge52" class="edge">
<title>v13&#45;&gt;v19</title>
<path fill="none" stroke="black" d="M352.92,-351.53C325.04,-335.94 279.31,-310.37 250.75,-294.4"/>
<text text-anchor="middle" x="314" y="-318.8" font-family="Times,serif" font-size="14.00">c</text>
</g>
<!-- v14&#45;&gt;v16 -->
<g id="edge53" class="edge">
<title>v14&#45;&gt;v16</title>
<path fill="none" stroke="black" d="M407.04,-263.81C418.55,-257.62 432.05,-250.15 444,-243 454.47,-236.73 455.53,-232.18 467,-228 529.26,-205.31 550.44,-224.94 615,-210 621.4,-208.52 628.14,-206.5 634.5,-204.37"/>
<text text-anchor="middle" x="471.5" y="-231.8" font-family="Times,serif" font-size="14.00">a</text>
</g>
<!-- v14&#45;&gt;v17 -->
<g id="edge54" class="edge">
<title>v14&#45;&gt;v17</title>
<path fill="none" stroke="black" d="M387.08,-260.83C391.44,-250.93 397.44,-238.43 404,-228 408.14,-221.41 413.32,-214.63 418.09,-208.81"/>
<text text-anchor="middle" x="409" y="-231.8" font-family="Times,serif" font-size="14.00">u</text>
</g>
<!-- v14&#45;&gt;v20 -->
<g id="edge55" class="edge">
<title>v14&#45;&gt;v20</title>
<path fill="none" stroke="black" d="M344.07,-266.21C333.47,-260.86 323.09,-253.35 317,-243 310.82,-232.5 315.8,-219.54 322.07,-209.44"/>
<text text-anchor="middle" x="321" y="-231.8" font-family="Times,serif" font-size="14.00">c</text>
</g>
<!-- v15&#45;&gt;v16 -->
<g id="edge56" class="edge">
<title>v15&#45;&gt;v16</title>
<path fill="none" stroke="black" d="M614.53,-265.72C623.58,-259.75 633.68,-251.94 641,-243 648.99,-233.24 654.85,-220.25 658.66,-209.96"/>
<text text-anchor="middle" x="655" y="-231.8" font-family="Times,serif" font-size="14.00">u</text>
</g>
<!-- v15&#45;&gt;v17 -->
<g id="edge57" class="edge">
<title>v15&#45;&gt;v17</title>
<path fill="none" stroke="black" d="M564.53,-271.96C520.61,-262.57 441.15,-245.33 439,-243 431.05,-234.35 429.51,-221.06 429.84,-210.35"/>
<text text-anchor="middle" x="442.5" y="-231.8" font-family="Times,serif" font-size="14.00">t</text>
</g>
<!-- v15&#45;&gt;v21 -->
<g id="edge58" class="edge">
<title>v15&#45;&gt;v21</title>
<path fill="none" stroke="black" d="M579.79,-262.61C575.58,-256.83 571.39,-249.97 569,-243 565.39,-232.47 564.64,-219.97 564.79,-210.1"/>
<text text-anchor="middle" x="573" y="-231.8" font-family="Times,serif" font-size="14.00">c</text>
</g>
<!-- v16&#45;&gt;v18 -->
<g id="edge59" class="edge">
<title>v16&#45;&gt;v18</title>
<path fill="none" stroke="black" d="M639.77,-177.52C628.28,-171.08 614.39,-163.21 602,-156 590.8,-149.48 588.82,-146.3 577,-141 553.49,-130.45 525.86,-121.78 503.93,-115.71"/>
<text text-anchor="middle" x="605.5" y="-144.8" font-family="Times,serif" font-size="14.00">t</text>
</g>
<!-- v16&#45;&gt;v22 -->
<g id="edge60" class="edge">
<title>v16&#45;&gt;v22</title>
<path fill="none" stroke="black" d="M657.09,-174.21C650.95,-159.31 642.03,-137.65 635.9,-122.76"/>
<text text-anchor="middle" x="652" y="-144.8" font-family="Times,serif" font-size="14.00">c</text>
</g>
<!-- v17&#45;&gt;v18 -->
<g id="edge61" class="edge">
<title>v17&#45;&gt;v18</title>
<path fill="none" stroke="black" d="M438.52,-174.21C444.27,-159.4 452.6,-137.93 458.38,-123.05"/>
<text text-anchor="middle" x="454.5" y="-144.8" font-family="Times,serif" font-size="14.00">a</text>
</g>
<!-- v17&#45;&gt;v23 -->
<g id="edge62" class="edge">
<title>v17&#45;&gt;v23</title>
<path fill="none" stroke="black" d="M410.1,-177.04C400.45,-170.77 389.05,-163.17 379,-156 363.47,-144.92 346.39,-131.74 333.63,-121.69"/>
<text text-anchor="middle" x="383" y="-144.8" font-family="Times,serif" font-size="14.00">c</text>
</g>
<!-- v18&#45;&gt;v24 -->
<g id="edge63" class="edge">
<title>v18&#45;&gt;v24</title>
<path fill="none" stroke="black" d="M449.19,-87.61C434.48,-72.37 412.72,-49.8 398.21,-34.76"/>
<text text-anchor="middle" x="432" y="-57.8" font-family="Times,serif" font-size="14.00">c</text>
</g>
<!-- v19&#45;&gt;v20 -->
<g id="edge64" class="edge">
<title>v19&#45;&gt;v20</title>
<path fill="none" stroke="black" d="M218.78,-260.68C216.2,-250.24 215.19,-237.24 222,-228 238.45,-205.68 268.98,-197.17 294.16,-194.11"/>
<text text-anchor="middle" x="227" y="-231.8" font-family="Times,serif" font-size="14.00">b</text>
</g>
<!-- v19&#45;&gt;v21 -->
<g id="edge65" class="edge">
<title>v19&#45;&gt;v21</title>
<path fill="none" stroke="black" d="M258.95,-265.83C290.51,-254.85 338.99,-238.79 382,-228 424.53,-217.33 435.93,-218.2 479,-210 495.93,-206.77 514.7,-203.12 530.46,-200.02"/>
<text text-anchor="middle" x="386.5" y="-231.8" font-family="Times,serif" font-size="14.00">a</text>
</g>
<!-- v19&#45;&gt;v24 -->
<g id="edge66" class="edge">
<title>v19&#45;&gt;v24</title>
<path fill="none" stroke="black" d="M188.62,-266.81C181.48,-264.76 174.03,-262.73 167,-261 125.63,-250.82 58.5,-266.38 77,-228 131.88,-114.12 282.8,-51.92 349.99,-29.17"/>
<text text-anchor="middle" x="149" y="-144.8" font-family="Times,serif" font-size="14.00">s</text>
</g>
<!-- v20&#45;&gt;v22 -->
<g id="edge67" class="edge">
<title>v20&#45;&gt;v22</title>
<path fill="none" stroke="black" d="M357.91,-176.85C377.25,-165.52 406.02,-150.07 433,-141 448.52,-135.78 548.46,-119.11 599.34,-110.8"/>
<text text-anchor="middle" x="437.5" y="-144.8" font-family="Times,serif" font-size="14.00">a</text>
</g>
<!-- v20&#45;&gt;v23 -->
<g id="edge68" class="edge">
<title>v20&#45;&gt;v23</title>
<path fill="none" stroke="black" d="M315.34,-175.91C309.6,-170.34 304.06,-163.54 301,-156 296.68,-145.36 299.93,-132.86 304.26,-123.02"/>
<text text-anchor="middle" x="305" y="-144.8" font-family="Times,serif" font-size="14.00">s</text>
</g>
<!-- v21&#45;&gt;v22 -->
<g id="edge69" class="edge">
<title>v21&#45;&gt;v22</title>
<path fill="none" stroke="black" d="M563.6,-173.57C563.07,-163.35 564.01,-150.61 570,-141 577.5,-128.97 590.78,-120.57 602.84,-115.01"/>
<text text-anchor="middle" x="574" y="-144.8" font-family="Times,serif" font-size="14.00">s</text>
</g>
<!-- v21&#45;&gt;v23 -->
<g id="edge70" class="edge">
<title>v21&#45;&gt;v23</title>
<path fill="none" stroke="black" d="M542.1,-177.52C521.63,-166.43 491.1,-150.98 463,-141 428.95,-128.9 389.02,-119.78 359.08,-113.89"/>
<text text-anchor="middle" x="502" y="-144.8" font-family="Times,serif" font-size="14.00">b</text>
</g>
<!-- v22&#45;&gt;v24 -->
<g id="edge71" class="edge">
<title>v22&#45;&gt;v24</title>
<path fill="none" stroke="black" d="M602.67,-94.9C557.06,-79.14 463.53,-46.83 414.53,-29.89"/>
<text text-anchor="middle" x="525" y="-57.8" font-family="Times,serif" font-size="14.00">b</text>
</g>
<!-- v23&#45;&gt;v24 -->
<g id="edge72" class="edge">
<title>v23&#45;&gt;v24</title>
<path fill="none" stroke="black" d="M327.3,-87.61C339.52,-72.56 357.53,-50.37 369.74,-35.34"/>
<text text-anchor="middle" x="356.5" y="-57.8" font-family="Times,serif" font-size="14.00">a</text>
</g>
</g>
</svg>
